<?xml version="1.0" encoding="utf-8"?>
<!-- Generator: Adobe Illustrator 20.0.0, SVG Export Plug-In . SVG Version: 6.00 Build 0)  -->
<svg version="1.1" id="Слой_1" xmlns="http://www.w3.org/2000/svg" xmlns:xlink="http://www.w3.org/1999/xlink" x="0px" y="0px"
	 viewBox="0 0 138.2 133.2" style="enable-background:new 0 0 138.2 133.2;" xml:space="preserve">
<style type="text/css">
	.st0{fill:#FFFFFF;}
</style>
<g>
	<g>
		<path class="st0" d="M0.1,136c0-45.2,0-90.5,0-135.8c46.9,0,93.8,0,140.8,0c0,45.2,0,90.5,0,135.8C94,136,47.1,136,0.1,136z
			 M41.7,84.7c-1.1,3.1-2.1,5.4-2.6,7.9c-1.4,6.9,1.5,12.1,8,13.9c3.1,0.9,6.6,1,9.8,0.8c11.3-0.6,22.6-1.7,33.8-2.4
			c10.1-0.5,20.3-0.7,30.4-1c3.8-0.1,5.9-1.7,5.8-4.6c0-2.7-1.8-4.2-5.5-4.4c-3-0.1-6-0.2-9,0c-18.4,1.1-36.8,2.2-55.3,3.3
			c-2.6,0.1-5.3-0.3-7.9-0.5c-0.4,0-0.8-0.6-1.5-1.2c0.2-1.2,0.4-2.6,0.7-3.9c1.6-0.3,2.7-0.5,3.8-0.6c23.4-2.9,46.9-5.8,70.3-8.6
			c3.6-0.4,5.8-1.9,6.5-5.6c3.1-16.3,6.4-32.6,9.5-49c0.8-4.1-1.4-6.8-5.5-7.3c-1.5-0.2-3-0.1-4.5-0.1c-29.3,0-58.6,0-87.8,0
			c-1.9,0-3.9,0-5.9,0c-1.6-5.3-3.2-10.1-4.5-14.9c-0.8-2.9-2.5-4.9-5.5-5c-6.1-0.2-12.3-0.2-18.5,0c-3,0.1-4.9,2.3-5.1,5.2
			c-0.2,2.8,1.2,4.9,3.9,5.7c1.4,0.4,2.9,0.4,4.4,0.5c3.5,0.1,6.9,0,10.7,0C27.5,37.2,34.6,61.1,41.7,84.7z M47.6,112
			c-6.3,0-11.4,5.2-11.5,11.4c0,6.4,5.4,11.7,11.8,11.5c6.3-0.2,11.2-5.3,11.2-11.6C59,117,53.9,112,47.6,112z M113.1,134.9
			c6.2,0,11.4-5.2,11.5-11.4c0.1-6.4-5.4-11.7-11.8-11.5c-6.3,0.2-11.2,5.2-11.1,11.6C101.8,130,106.8,135,113.1,134.9z"/>
		<path d="M41.7,84.7c-7-23.6-14.1-47.4-21.4-71.7c-3.7,0-7.2,0-10.7,0c-1.5,0-3,0-4.4-0.5c-2.7-0.8-4.1-2.9-3.9-5.7
			c0.2-3,2.1-5.1,5.1-5.2c6.1-0.3,12.3-0.2,18.5,0c3,0.1,4.7,2.1,5.5,5c1.4,4.8,2.9,9.5,4.5,14.9c2,0,3.9,0,5.9,0
			c29.3,0,58.6,0,87.8,0c1.5,0,3-0.1,4.5,0.1c4.1,0.5,6.3,3.1,5.5,7.3c-3.1,16.3-6.3,32.6-9.5,49c-0.7,3.7-2.9,5.2-6.5,5.6
			c-23.4,2.8-46.9,5.7-70.3,8.6c-1.1,0.1-2.3,0.4-3.8,0.6c-0.2,1.3-0.5,2.7-0.7,3.9c0.7,0.6,1.1,1.1,1.5,1.2
			c2.6,0.3,5.3,0.7,7.9,0.5c18.4-1,36.8-2.2,55.3-3.3c3-0.2,6-0.1,9,0c3.7,0.2,5.5,1.7,5.5,4.4c0.1,2.9-2,4.5-5.8,4.6
			c-10.1,0.3-20.3,0.4-30.4,1c-11.3,0.6-22.6,1.7-33.8,2.4c-3.3,0.2-6.7,0-9.8-0.8c-6.6-1.8-9.4-7-8-13.9
			C39.5,90.1,40.6,87.8,41.7,84.7z M38.3,33.1c1.9,6.4,3.7,12.2,5.4,17.8c8,0,15.3,0,22.7,0c0-6.2,0-11.9,0-17.8
			C57.1,33.1,48.1,33.1,38.3,33.1z M95.5,57.2c-7.8,0-15.3,0-23.1,0c0,6.9,0,13.6,0,20.6c7.9-1,15.4-1.9,23.1-2.8
			C95.5,68.8,95.5,63.1,95.5,57.2z M95.4,51c0-6.1,0-12,0-17.7c-7.9,0-15.5,0-23,0c0,6.1,0,11.8,0,17.7C80.3,51,87.8,51,95.4,51z
			 M101.5,51c7.3,0,14,0,21.1,0c1.1-6,2.2-11.8,3.4-17.8c-8.4,0-16.3,0-24.5,0C101.5,39.2,101.5,44.9,101.5,51z M66.4,78.5
			c0-7.5,0-14.3,0-21.3c-7,0-13.7,0-20.9,0c2.4,7.9,4.6,15.3,6.8,22.9C57.2,79.6,61.6,79.1,66.4,78.5z M101.5,74.3
			c5.9-0.7,11.4-1.4,17-2.2c1-5.1,1.9-9.8,2.8-14.9c-6.8,0-13.2,0-19.9,0C101.5,62.9,101.5,68.3,101.5,74.3z"/>
		<path d="M47.6,112c6.3,0,11.4,5,11.5,11.3c0.1,6.3-4.9,11.5-11.2,11.6c-6.5,0.2-11.8-5.1-11.8-11.5
			C36.1,117.2,41.3,112.1,47.6,112z"/>
		<path d="M113.1,134.9c-6.3,0-11.4-4.9-11.4-11.3c-0.1-6.4,4.8-11.5,11.1-11.6c6.4-0.2,11.9,5.1,11.8,11.5
			C124.6,129.8,119.4,134.9,113.1,134.9z"/>
		<path class="st0" d="M38.3,33.1c9.8,0,18.7,0,28,0c0,5.9,0,11.6,0,17.8c-7.3,0-14.7,0-22.7,0C42,45.4,40.3,39.5,38.3,33.1z"/>
		<path class="st0" d="M95.5,57.2c0,6,0,11.7,0,17.8c-7.7,0.9-15.2,1.8-23.1,2.8c0-7,0-13.7,0-20.6C80.2,57.2,87.7,57.2,95.5,57.2z"
			/>
		<path class="st0" d="M95.4,51c-7.6,0-15.2,0-23,0c0-5.9,0-11.6,0-17.7c7.6,0,15.1,0,23,0C95.4,39.1,95.4,44.9,95.4,51z"/>
		<path class="st0" d="M101.5,51c0-6.1,0-11.8,0-17.8c8.2,0,16.1,0,24.5,0c-1.2,6.1-2.2,11.8-3.4,17.8C115.5,51,108.8,51,101.5,51z"
			/>
		<path class="st0" d="M66.4,78.5c-4.8,0.6-9.2,1.1-14,1.6c-2.3-7.6-4.5-15-6.8-22.9c7.2,0,13.9,0,20.9,0
			C66.4,64.2,66.4,71.1,66.4,78.5z"/>
		<path class="st0" d="M101.5,74.3c0-6,0-11.4,0-17.1c6.6,0,13,0,19.9,0c-1,5.1-1.9,9.8-2.8,14.9C112.9,72.8,107.3,73.6,101.5,74.3z
			"/>
	</g>
</g>
</svg>
