<?xml version="1.0" encoding="UTF-8" standalone="no"?>
<!-- Created with Inkscape (http://www.inkscape.org/) -->

<svg
   xmlns:dc="http://purl.org/dc/elements/1.1/"
   xmlns:cc="http://creativecommons.org/ns#"
   xmlns:rdf="http://www.w3.org/1999/02/22-rdf-syntax-ns#"
   xmlns:svg="http://www.w3.org/2000/svg"
   xmlns="http://www.w3.org/2000/svg"
   xmlns:sodipodi="http://sodipodi.sourceforge.net/DTD/sodipodi-0.dtd"
   xmlns:inkscape="http://www.inkscape.org/namespaces/inkscape"
   width="36.492393mm"
   height="35.422638mm"
   viewBox="0 0 36.492394 35.422638"
   version="1.1"
   id="svg8"
   sodipodi:docname="cart_icon.svg"
   inkscape:version="0.92.1 r15371">
  <defs
     id="defs2" />
  <sodipodi:namedview
     id="base"
     pagecolor="#ffffff"
     bordercolor="#666666"
     borderopacity="1.0"
     inkscape:pageopacity="0.0"
     inkscape:pageshadow="2"
     inkscape:zoom="1.4"
     inkscape:cx="185.48982"
     inkscape:cy="104.25302"
     inkscape:document-units="mm"
     inkscape:current-layer="layer1"
     showgrid="false"
     inkscape:window-width="1280"
     inkscape:window-height="962"
     inkscape:window-x="-8"
     inkscape:window-y="-8"
     inkscape:window-maximized="1"
     fit-margin-top="0"
     fit-margin-left="0"
     fit-margin-right="0"
     fit-margin-bottom="0" />
  <metadata
     id="metadata5">
    <rdf:RDF>
      <cc:Work
         rdf:about="">
        <dc:format>image/svg+xml</dc:format>
        <dc:type
           rdf:resource="http://purl.org/dc/dcmitype/StillImage" />
        <dc:title></dc:title>
      </cc:Work>
    </rdf:RDF>
  </metadata>
  <g
     inkscape:label="Layer 1"
     inkscape:groupmode="layer"
     id="layer1"
     transform="translate(-403.41501,-151.65505)">
    <path
       style="fill:#181818;stroke-width:0.26458335"
       d="m 414.20913,186.6637 c -1.44528,-0.89697 -1.9213,-2.57437 -1.15249,-4.06109 1.41274,-2.73194 5.68406,-1.60909 5.68406,1.49423 0,2.25532 -2.63165,3.74599 -4.53157,2.56686 z m 17.31461,-0.0556 c -1.07431,-0.67402 -1.40595,-1.30688 -1.40595,-2.68295 0,-1.51238 1.32944,-2.90135 2.77699,-2.90135 2.85805,0 4.2823,3.2124 2.27632,5.13425 -1.01918,0.97643 -2.51432,1.16093 -3.64736,0.45005 z m -15.29658,-6.88549 c -1.17214,-0.28711 -1.93194,-0.75407 -2.40724,-1.47947 -0.41679,-0.6361 -0.41298,-1.48542 0.0184,-4.09851 0.11705,-0.70902 -0.48739,-3.06519 -2.57925,-10.05416 l -2.73211,-9.12813 -2.19122,-0.13229 c -1.76769,-0.10672 -2.26367,-0.23156 -2.56603,-0.64588 -0.5197,-0.71214 -0.46837,-1.37723 0.15436,-1.99995 0.46051,-0.46052 0.88194,-0.52917 3.24842,-0.52917 3.3134,0 3.6925,0.205 4.28567,2.31743 0.23459,0.83547 0.55484,1.84645 0.71165,2.24663 l 0.28512,0.72761 H 425.652 c 12.84429,0 13.21121,0.0141 13.72623,0.52916 0.29105,0.29104 0.52917,0.6835 0.52917,0.87211 0,0.18862 -0.593,3.42746 -1.31777,7.19741 -0.94219,4.90081 -1.45157,6.98825 -1.78719,7.32387 -0.38194,0.38194 -2.31818,0.69314 -10.39004,1.66996 -5.45634,0.6603 -10.06945,1.25462 -10.25135,1.32071 -0.61501,0.22346 -0.37265,1.17451 0.3452,1.35468 0.37177,0.0933 3.25904,-0.0245 6.41615,-0.26189 7.4846,-0.56267 13.09184,-0.5765 13.54257,-0.0334 0.47615,0.57373 0.11278,1.69133 -0.59649,1.83462 -0.32521,0.0657 -2.79394,0.18643 -5.48608,0.26829 -4.26826,0.12978 -8.72227,0.41401 -12.30312,0.78512 -0.58209,0.0603 -1.41553,0.0222 -1.85209,-0.0847 z m 4.29948,-7.7631 c 0.34551,-0.27258 0.47944,-4.26324 0.17013,-5.06928 -0.13057,-0.34027 -0.62232,-0.41851 -2.63022,-0.41851 -1.35829,0 -2.53455,0.10507 -2.61392,0.23349 -0.1401,0.22669 1.17781,4.95554 1.54804,5.55459 0.21599,0.34947 3.00325,0.11209 3.52597,-0.30029 z m 6.94531,-0.68608 0.92605,-0.1932 v -2.23811 -2.23811 h -3.04271 -3.04271 l -0.0776,2.22684 c -0.1085,3.11525 -0.17303,3.03497 2.26502,2.81791 1.12523,-0.10017 2.46259,-0.26908 2.97191,-0.37533 z m 6.50747,-0.84939 c 0.4155,-0.15283 0.63088,-0.58499 0.8599,-1.72537 0.47499,-2.36516 0.61026,-2.22695 -2.17968,-2.22695 -2.83137,0 -2.80644,-0.02 -2.80644,2.24895 0,2.20127 0.0566,2.26162 1.94395,2.07138 0.89536,-0.0903 1.87738,-0.25586 2.18227,-0.36801 z m -13.28265,-5.95834 c 0.20816,-0.54244 0.20816,-3.38303 0,-3.92547 -0.13538,-0.3528 -0.71697,-0.41851 -3.70417,-0.41851 -2.66028,0 -3.54271,0.0824 -3.54015,0.33073 0.003,0.27825 0.78698,2.99362 1.18425,4.10104 0.0851,0.23716 0.93639,0.33073 3.00906,0.33073 2.3916,0 2.91813,-0.0722 3.05101,-0.41852 z m 7.70123,-1.96273 v -2.24896 h -3.04271 -3.04271 l -0.0786,1.95961 c -0.0432,1.07779 -0.0157,2.12351 0.0612,2.32382 0.10966,0.28575 0.78198,0.34808 3.12128,0.28934 l 2.98153,-0.0749 z m 7.58717,0.14194 c 0.24421,-1.15885 0.38615,-2.20065 0.31541,-2.3151 -0.0707,-0.11445 -1.47806,-0.20809 -3.12739,-0.20809 -3.42735,0 -3.31999,-0.077 -3.31999,2.38125 0,2.46497 -0.0709,2.41023 3.00799,2.32401 l 2.67996,-0.0751 z"
       id="path78"
       inkscape:connector-curvature="0" />
  </g>
</svg>
