<?xml version="1.0" encoding="utf-8"?>
<!-- Generator: Adobe Illustrator 20.0.0, SVG Export Plug-In . SVG Version: 6.00 Build 0)  -->
<svg version="1.1" id="Слой_1" xmlns="http://www.w3.org/2000/svg" xmlns:xlink="http://www.w3.org/1999/xlink" x="0px" y="0px"
	 viewBox="0 0 612 792" style="enable-background:new 0 0 612 792;" xml:space="preserve">
<style type="text/css">
	.st0{fill:#FFFFFF;}
</style>
<g>
	<g>
		<path class="st0" d="M151.2,298c38,0,76,0,114,0c0,45,0,90,0,135c-46.3,0-92.7,0-139,0c0-42.3,0-84.7,0-127
			c6.2,0.7,12.4,1.6,18.6,2.2c3.1,0.3,3.8,3.5,4.5,6c4.8,16,9.7,31.9,14.3,47.9c1,3.5,2.1,7,3.2,10.5c1.7,5.3,2.6,10.3,0.7,16
			c-2.2,6.7,1.6,11.6,8.7,12.9c4.2,0.8,8.3,0.2,12.5-0.1c17.2-1.4,34.5-3,51.8-2.9c2,0,4.4,0.3,5.7-1.9c-1.3-2.4-3.5-2-5.3-2
			c-17.2-0.6-34.3,1-51.3,2.6c-4.3,0.4-8.6,0.4-13,0.1c-3.1-0.2-5-1.8-5.2-5c-0.1-3.1,1.6-4.9,4.7-5.5c10.5-2,21.1-2.7,31.7-4.1
			c11.7-1.6,23.5-2.9,35.2-4.3c6.7-0.8,8.9-2.8,10.2-9.6c2.3-12.8,5.2-25.5,7.3-38.3c1.2-7.5-0.7-9.9-8.3-10
			c-27.3-0.1-54.6,0-82-0.1c-13.3,0-12.3,0-15.3-11.4C153.8,305.3,150.5,302.3,151.2,298z"/>
		<path d="M151.2,298c1.6,2.2,3.8,4.2,4.8,6.6c1.7,4.3,2.8,8.8,4.2,13.5c2.4,0,4.4,0,6.4,0c29.5,0,59,0,88.5,0
			c8.2,0,10,2.2,8.5,10.3c-2.8,14.9-5.7,29.8-8.5,44.7c-0.8,4.5-2.9,6.8-7.8,7.4c-23.2,2.6-46.3,5.6-69.4,8.5
			c-1.2,0.1-2.3,0.3-4,0.6c-0.2,1.4-0.3,2.9-0.6,5.5c3.7,0,6.6,0.1,9.5,0c19.3-1.1,38.6-2.2,57.8-3.3c2.2-0.1,4.3,0,6.5,0.1
			c3,0.1,5.4,1.2,5.4,4.5c0,3.6-2.5,4.6-5.8,4.7c-10.3,0.3-20.6,0.4-31,1c-11.1,0.6-22.3,1.6-33.4,2.4c-2.1,0.1-4.3,0.2-6.5-0.1
			c-10.1-1.4-14.2-8.3-10.7-18c0.5-1.4,1.1-2.8,1.8-4.5c-7.1-23.7-14.2-47.6-21.2-71.2c-6.6-2.4-14.4,2.5-19.4-4.6c0-2.7,0-5.3,0-8
			C134.5,298,142.8,298,151.2,298z"/>
		<path d="M172.9,432c-6.5,0.1-11.8-5.2-11.8-11.6c0-6.2,5.1-11.4,11.4-11.5c6.5-0.1,11.8,5.1,11.7,11.6
			C184.3,426.8,179.2,431.9,172.9,432z"/>
		<path d="M238.2,432c-6.5-0.1-11.5-5.3-11.3-12c0.2-6.3,5.3-11.2,11.6-11.2c6.2,0.1,11.4,5.2,11.5,11.5
			C250,426.7,244.6,432,238.2,432z"/>
		<path class="st0" d="M168.9,347.7c-1.7-5.7-3.4-11.3-5.3-17.5c9.4,0,18.4,0,27.8,0c0,5.7,0,11.4,0,17.5
			C184,347.7,176.7,347.7,168.9,347.7z"/>
		<path class="st0" d="M197.7,374.5c0-7,0-13.4,0-20.3c7.6,0,15.2,0,23,0c0,5.8,0,11.4,0,17.5C213.1,372.7,205.6,373.6,197.7,374.5z
			"/>
		<path class="st0" d="M197.7,330.2c7.7,0,15.1,0,22.9,0c0,5.8,0,11.5,0,17.6c-7.6,0-15.1,0-22.9,0
			C197.7,341.9,197.7,336.2,197.7,330.2z"/>
		<path class="st0" d="M226.9,347.7c0-5.8,0-11.6,0-17.5c8.1,0,15.9,0,24.2,0c-1.1,5.9-2.1,11.5-3.2,17.5
			C240.9,347.7,234,347.7,226.9,347.7z"/>
		<path class="st0" d="M191.5,354.3c0,7,0,13.7,0,21c-4.5,0.6-8.9,1.1-13.9,1.8c-2.2-7.5-4.5-14.9-6.8-22.8
			C177.9,354.3,184.4,354.3,191.5,354.3z"/>
		<path class="st0" d="M226.8,354.2c6.5,0,12.7,0,19.7,0c-0.9,4.9-1.8,9.5-2.8,14.7c-5.5,0.7-11,1.4-16.9,2.2
			C226.8,365.2,226.8,359.8,226.8,354.2z"/>
	</g>
</g>
</svg>
