<?xml version="1.0" encoding="utf-8"?>
<!-- Generator: Adobe Illustrator 20.0.0, SVG Export Plug-In . SVG Version: 6.00 Build 0)  -->
<svg version="1.1" id="Слой_1" xmlns="http://www.w3.org/2000/svg" xmlns:xlink="http://www.w3.org/1999/xlink" x="0px" y="0px"
	 viewBox="0 0 186 192" style="enable-background:new 0 0 186 192;" xml:space="preserve">
<style type="text/css">
	.st0{fill:#FFFFFF;}
</style>
<g>
	<g>
		<path class="st0" d="M187.8,97.5c0,30.8,0,61.7,0.1,92.5c0,2.5-0.6,3.1-3.1,3.1c-60.3-0.1-120.7-0.1-181,0c-2.5,0-3.1-0.6-3.1-3.1
			c0.1-62,0.1-124,0-186c0-2.5,0.6-3.1,3.1-3.1c60.3,0.1,120.7,0.1,181,0c2.5,0,3.1,0.6,3.1,3.1C187.7,35.2,187.8,66.3,187.8,97.5z
			 M67.6,88.7c0-5.6,0-9.9,0-14.2c0-5.1,0.3-5.4,5.4-5.4c30,0,60,0,90,0c5.2,0,5.6,0.4,5.6,5.8c0,31.3,0,62.7,0,94
			c0,5.6-0.4,6.1-5.9,6.1c-29.8,0-59.7,0-89.5,0c-5.2,0-5.6-0.4-5.6-5.8c0-9,0-18-0.1-27c0-1.3-0.4-3.2-1.3-3.9
			c-2.5-1.8-5.3-3-8.6-4.8c0,12.5,0,24.3,0,36.2c0,10.2,4.7,15.1,14.9,15.1c30.2,0,60.3,0,90.5,0c10.3,0,15.2-4.7,15.2-14.9
			c0-32,0-64,0-96c0-9.9-4.9-14.7-14.7-14.8c-18,0-36,0-54,0c-12.8,0-25.7-0.1-38.5,0c-8,0.1-12.7,5.2-13.5,13
			C56.8,80,62,83.6,67.6,88.7z M31.4,71.9c0.8,3.9,1.4,7.9,2.4,11.7c4.1,15.5,11.1,29.1,24.1,39.2c11.5,8.9,24.6,13,38.8,13.9
			c4.2,0.3,5.1,1.7,4.8,5.3c-0.3,3.1-0.3,6.4,0.1,9.5c0.2,1.7,1.4,4.2,2.7,4.6c1.6,0.6,4.4,0,5.7-1.2c9.6-9.2,19.1-18.6,28.5-28
			c2.9-2.9,2.8-5.1-0.2-8.2c-9.3-9.3-18.6-18.6-28.2-27.6c-1.3-1.2-4.2-2-5.6-1.3c-1.5,0.7-2.6,3.2-2.9,5.1
			c-0.5,3.1-0.1,6.3-0.1,9.5c0,4.8-0.1,4.9-5.1,4.7c-9.5-0.4-18.2-3.5-26.4-8.3c-12.8-7.5-21.6-18.5-28.4-31.5c-1.4-2.7-3-5-6.5-4.1
			C31.4,65.9,31.5,68.9,31.4,71.9z M9.6,72c0,16.5,0,33,0,49.5c0,8.6,5,13.5,13.7,13.6c7.2,0.1,14.3-0.1,21.5,0.1
			c3.1,0.1,4.5-0.6,4.3-4.1c-0.2-5.2-0.3-5.8-4.5-5.8c-6.3-0.1-12.7,0-19,0c-6.3,0-6.4-0.1-6.4-6.4c0-20.7,0-41.3,0-62
			c0-10.7,0-21.3,0-32c0-4.9,0.6-5.4,5.5-5.4c30,0,60,0,90,0c4.8,0,5.4,0.7,5.4,5.6c0.1,7.2,0.3,14.3-0.1,21.5
			c-0.2,4.5,2.6,3.7,5.1,3.8c2.5,0.1,4.9,0.5,4.7-3.6c-0.3-7.5-0.1-15-0.1-22.5c0-9.8-4.6-14.3-14.4-14.3C85,9.7,54.5,10,24,9.6
			C15.3,9.5,9.2,15.7,9.5,24.1C9.9,40,9.6,56,9.6,72z"/>
		<path d="M67.6,88.7c-5.6-5.1-10.9-8.6-10-16.5c0.8-7.8,5.5-13,13.5-13c12.8-0.1,25.7,0,38.5,0c18,0,36,0,54,0
			c9.8,0,14.7,4.9,14.7,14.8c0,32,0.1,64,0,96c0,10.2-4.8,14.8-15.2,14.9c-30.2,0-60.3,0-90.5,0c-10.2,0-14.9-4.9-14.9-15.1
			c0-11.8,0-23.6,0-36.2c3.2,1.7,6.1,3,8.6,4.8c0.9,0.7,1.3,2.6,1.3,3.9c0.1,9,0,18,0.1,27c0,5.4,0.4,5.8,5.6,5.8
			c29.8,0,59.7,0,89.5,0c5.4,0,5.9-0.5,5.9-6.1c0-31.3,0-62.7,0-94c0-5.4-0.4-5.8-5.6-5.8c-30,0-60,0-90,0c-5,0-5.4,0.3-5.4,5.4
			C67.6,78.7,67.6,83.1,67.6,88.7z"/>
		<path d="M31.4,71.9c0.1-3,0.1-6,3.7-6.9c3.5-0.9,5.1,1.4,6.5,4.1c6.7,12.9,15.6,24,28.4,31.5c8.1,4.8,16.8,7.9,26.4,8.3
			c5,0.2,5,0.1,5.1-4.7c0-3.2-0.3-6.4,0.1-9.5c0.3-1.9,1.4-4.4,2.9-5.1c1.4-0.6,4.3,0.1,5.6,1.3c9.5,9.1,18.9,18.3,28.2,27.6
			c3,3,3.1,5.3,0.2,8.2c-9.4,9.4-18.8,18.8-28.5,28c-1.2,1.2-4.1,1.8-5.7,1.2c-1.3-0.5-2.5-2.9-2.7-4.6c-0.4-3.1-0.4-6.3-0.1-9.5
			c0.3-3.7-0.6-5.1-4.8-5.3c-14.2-0.9-27.4-4.9-38.8-13.9c-13-10.1-20-23.7-24.1-39.2C32.7,79.8,32.1,75.8,31.4,71.9z"/>
		<path d="M9.6,72c0-16,0.3-32-0.1-48C9.2,15.7,15.3,9.5,24,9.6c30.5,0.3,61,0.1,91.5,0.1c9.8,0,14.4,4.6,14.4,14.3
			c0,7.5-0.2,15,0.1,22.5c0.2,4.1-2.2,3.7-4.7,3.6c-2.6-0.1-5.4,0.8-5.1-3.8c0.4-7.1,0.1-14.3,0.1-21.5c0-4.9-0.7-5.6-5.4-5.6
			c-30,0-60,0-90,0c-5,0-5.5,0.6-5.5,5.4c-0.1,10.7,0,21.3,0,32c0,20.7,0,41.3,0,62c0,6.4,0.1,6.4,6.4,6.4c6.3,0,12.7-0.1,19,0
			c4.2,0.1,4.3,0.6,4.5,5.8c0.1,3.4-1.2,4.2-4.3,4.1c-7.2-0.2-14.3,0-21.5-0.1c-8.7-0.1-13.7-4.9-13.7-13.6C9.6,105,9.6,88.5,9.6,72
			z"/>
	</g>
</g>
</svg>
