<?xml version="1.0" encoding="UTF-8" standalone="no"?>
<!-- Created with Inkscape (http://www.inkscape.org/) -->

<svg
   xmlns:dc="http://purl.org/dc/elements/1.1/"
   xmlns:cc="http://creativecommons.org/ns#"
   xmlns:rdf="http://www.w3.org/1999/02/22-rdf-syntax-ns#"
   xmlns:svg="http://www.w3.org/2000/svg"
   xmlns="http://www.w3.org/2000/svg"
   xmlns:sodipodi="http://sodipodi.sourceforge.net/DTD/sodipodi-0.dtd"
   xmlns:inkscape="http://www.inkscape.org/namespaces/inkscape"
   width="44.582272mm"
   height="46.289753mm"
   viewBox="0 0 44.582272 46.289753"
   version="1.1"
   id="svg8"
   sodipodi:docname="copy_icon.svg"
   inkscape:version="0.92.1 r15371">
  <defs
     id="defs2" />
  <sodipodi:namedview
     id="base"
     pagecolor="#ffffff"
     bordercolor="#666666"
     borderopacity="1.0"
     inkscape:pageopacity="0.0"
     inkscape:pageshadow="2"
     inkscape:zoom="1.4"
     inkscape:cx="-20.576964"
     inkscape:cy="173.08634"
     inkscape:document-units="mm"
     inkscape:current-layer="layer1"
     showgrid="false"
     inkscape:window-width="1280"
     inkscape:window-height="962"
     inkscape:window-x="-8"
     inkscape:window-y="-8"
     inkscape:window-maximized="1"
     fit-margin-top="0"
     fit-margin-left="0"
     fit-margin-right="0"
     fit-margin-bottom="0" />
  <metadata
     id="metadata5">
    <rdf:RDF>
      <cc:Work
         rdf:about="">
        <dc:format>image/svg+xml</dc:format>
        <dc:type
           rdf:resource="http://purl.org/dc/dcmitype/StillImage" />
        <dc:title></dc:title>
      </cc:Work>
    </rdf:RDF>
  </metadata>
  <g
     inkscape:label="Layer 1"
     inkscape:groupmode="layer"
     id="layer1"
     transform="translate(-457.93684,-159.00008)">
    <path
       style="fill:#040404;stroke-width:0.26458335"
       d="m 473.15038,205.0846 c -1.02262,-0.33252 -1.94762,-1.14118 -2.22916,-1.9488 -0.16669,-0.47817 -0.28438,-3.04086 -0.28438,-6.19252 v -5.37674 l 1.25677,0.7379 1.25677,0.73789 0.13229,4.74448 0.1323,4.74448 12.93441,0.0687 c 9.33087,0.0496 13.03496,-0.0148 13.29531,-0.23083 0.29622,-0.24584 0.36018,-2.70044 0.35685,-13.69473 -0.002,-7.36736 -0.0992,-13.54517 -0.21561,-13.72846 -0.16641,-0.26213 -3.0029,-0.31859 -13.29126,-0.26458 l -13.0797,0.0687 -0.0761,2.44739 c -0.0418,1.34607 -0.18055,2.4474 -0.30824,2.4474 -0.12769,0 -0.71854,-0.55254 -1.31299,-1.22788 -0.96398,-1.09514 -1.08071,-1.374 -1.07983,-2.57968 6.6e-4,-0.88875 0.1839,-1.65183 0.53496,-2.22763 0.99922,-1.63893 0.98787,-1.63773 15.50455,-1.63773 14.49579,0 13.99719,-0.0546 15.28497,1.67305 0.5499,0.73772 0.55682,0.92412 0.55682,14.9957 0,13.99487 -0.01,14.262 -0.54797,14.9957 -1.24602,1.6986 -1.02549,1.67491 -15.32703,1.64627 -7.13052,-0.0143 -13.20271,-0.10339 -13.49375,-0.19803 z m 9.59115,-7.4693 c -0.3856,-0.22459 -0.46302,-0.65995 -0.46302,-2.6036 v -2.33391 l -1.84741,-0.18204 c -8.29932,-0.8178 -14.04852,-5.81101 -16.14005,-14.01772 -0.90383,-3.54642 -0.64009,-5.08382 0.83591,-4.87278 0.43878,0.0627 1.00379,0.73974 2.05947,2.4677 1.96236,3.21203 4.57281,5.78899 7.28687,7.1934 2.37883,1.23094 4.77482,1.93473 6.58663,1.93473 h 1.21858 v -2.32833 c 0,-2.44562 0.20622,-2.96334 1.1804,-2.96334 0.35246,0 2.07553,1.53224 4.87063,4.3312 3.39741,3.40209 4.2906,4.44029 4.16381,4.83978 -0.22063,0.69515 -8.4385,8.82269 -8.9106,8.81264 -0.20801,-0.004 -0.58656,-0.1294 -0.84122,-0.27773 z m -23.77748,-6.56226 -1.02721,-1.02721 v -14.30617 c 0,-10.37158 0.0853,-14.49331 0.31001,-14.98659 0.17051,-0.37422 0.69058,-0.9156 1.15571,-1.20307 0.81357,-0.50281 1.3622,-0.5226 14.44051,-0.52093 17.14821,0.002 15.81876,-0.53635 15.83439,6.41441 l 0.009,4.16718 h -1.32292 -1.32291 v -3.94044 c 0,-3.34909 -0.0628,-3.96454 -0.41852,-4.10104 -0.23018,-0.0883 -6.05574,-0.1606 -12.94568,-0.1606 -11.03556,0 -12.57668,0.0495 -12.94295,0.41577 -0.36704,0.36704 -0.41529,1.97196 -0.41172,13.69219 0.002,7.30203 0.0964,13.42172 0.20922,13.59932 0.14153,0.22275 1.3507,0.34584 3.89855,0.39687 l 3.69339,0.074 0.0806,1.25678 0.0806,1.25677 h -4.14666 -4.14667 z"
       id="path65"
       inkscape:connector-curvature="0" />
  </g>
</svg>
