<?xml version="1.0" encoding="UTF-8" standalone="no"?>
<!-- Created with Inkscape (http://www.inkscape.org/) -->

<svg
   xmlns:dc="http://purl.org/dc/elements/1.1/"
   xmlns:cc="http://creativecommons.org/ns#"
   xmlns:rdf="http://www.w3.org/1999/02/22-rdf-syntax-ns#"
   xmlns:svg="http://www.w3.org/2000/svg"
   xmlns="http://www.w3.org/2000/svg"
   xmlns:sodipodi="http://sodipodi.sourceforge.net/DTD/sodipodi-0.dtd"
   xmlns:inkscape="http://www.inkscape.org/namespaces/inkscape"
   width="53.859619mm"
   height="45.684361mm"
   viewBox="0 0 53.85962 45.684361"
   version="1.1"
   id="svg8"
   sodipodi:docname="desigh_icon.svg"
   inkscape:version="0.92.1 r15371">
  <defs
     id="defs2" />
  <sodipodi:namedview
     id="base"
     pagecolor="#ffffff"
     bordercolor="#666666"
     borderopacity="1.0"
     inkscape:pageopacity="0.0"
     inkscape:pageshadow="2"
     inkscape:zoom="1.4"
     inkscape:cx="256.27554"
     inkscape:cy="48.610113"
     inkscape:document-units="mm"
     inkscape:current-layer="layer1"
     showgrid="false"
     inkscape:window-width="1280"
     inkscape:window-height="962"
     inkscape:window-x="-8"
     inkscape:window-y="-8"
     inkscape:window-maximized="1"
     fit-margin-top="0"
     fit-margin-left="0"
     fit-margin-right="0"
     fit-margin-bottom="0" />
  <metadata
     id="metadata5">
    <rdf:RDF>
      <cc:Work
         rdf:about="">
        <dc:format>image/svg+xml</dc:format>
        <dc:type
           rdf:resource="http://purl.org/dc/dcmitype/StillImage" />
        <dc:title></dc:title>
      </cc:Work>
    </rdf:RDF>
  </metadata>
  <g
     inkscape:label="Layer 1"
     inkscape:groupmode="layer"
     id="layer1"
     transform="translate(-384.68629,-126.67114)">
    <path
       style="fill:#101010;stroke-width:0.26458332"
       d="m 403.33942,172.22253 c 0,-0.0731 0.46824,-0.55602 1.04054,-1.07305 0.62353,-0.56333 1.1086,-1.27879 1.21038,-1.78525 0.38793,-1.93056 -0.14743,-1.77122 5.95116,-1.77122 6.09858,0 5.56322,-0.15934 5.95116,1.77122 0.10177,0.50646 0.58685,1.22192 1.21038,1.78525 0.5723,0.51703 1.04054,0.99991 1.04054,1.07305 0,0.0731 -3.69094,0.13297 -8.20208,0.13297 -4.51115,0 -8.20208,-0.0598 -8.20208,-0.13297 z m -18.0285,-7.25195 -0.62463,-0.50575 v -14.70039 -14.70039 l 0.60253,-0.60271 0.60253,-0.60271 15.51758,-0.0724 c 8.53466,-0.0398 15.61853,0.0286 15.74192,0.15195 0.1234,0.1234 -0.19989,0.77999 -0.71843,1.45909 l -0.94278,1.23472 -13.68188,0.0685 -13.68189,0.0685 v 11.50937 11.50938 h 23.41563 23.41562 v -11.50932 -11.50937 l -3.9026,-0.0732 c -2.86039,-0.0537 -3.90257,-0.15965 -3.90248,-0.39688 8e-5,-0.17801 0.59811,-0.83862 1.32898,-1.46802 l 1.32883,-1.14438 3.67762,0.086 c 3.48188,0.0815 3.71435,0.1206 4.36802,0.73542 l 0.69042,0.64937 -0.0746,14.65383 -0.0746,14.65384 -0.62463,0.50564 c -0.60532,0.49002 -1.41592,0.50565 -26.23058,0.50565 -24.81663,0 -25.62521,-0.0156 -26.23058,-0.50576 z m 14.98579,-9.51598 -0.79375,-0.20473 1.11117,-0.31734 c 1.15226,-0.32907 1.81778,-1.04235 2.44883,-2.62457 0.1898,-0.47589 0.71112,-1.17324 1.15849,-1.54968 0.67793,-0.57044 1.0035,-0.663 1.9549,-0.55576 1.32297,0.14911 3.12658,1.24375 3.3836,2.05356 0.43659,1.37556 -0.32555,2.18589 -2.64269,2.8098 -1.62654,0.43796 -5.53906,0.66768 -6.62055,0.38872 z m 8.66855,-5.12566 c -0.46695,-0.32742 -0.91123,-0.75249 -0.98728,-0.94459 -0.077,-0.19439 2.05414,-3.1278 4.80544,-6.61459 11.82399,-14.98483 11.84918,-15.01479 13.15642,-15.64762 1.45771,-0.70567 2.67395,-0.58523 3.79072,0.37538 1.0285,0.88468 1.03729,2.78334 0.019,4.11215 -0.88975,1.16111 -19.4226,19.31459 -19.71822,19.31459 -0.11941,0 -0.59915,-0.26789 -1.0661,-0.59532 z m 17.5252,-21.89427 c 0.7423,-0.77479 0.74622,-0.79375 0.1644,-0.79375 -0.88996,0 -1.61961,0.48099 -1.61961,1.06765 0,0.74914 0.57959,0.64005 1.45521,-0.2739 z"
       id="path91"
       inkscape:connector-curvature="0" />
  </g>
</svg>
