<?xml version="1.0" encoding="UTF-8" standalone="no"?>
<!-- Created with Inkscape (http://www.inkscape.org/) -->

<svg
   xmlns:dc="http://purl.org/dc/elements/1.1/"
   xmlns:cc="http://creativecommons.org/ns#"
   xmlns:rdf="http://www.w3.org/1999/02/22-rdf-syntax-ns#"
   xmlns:svg="http://www.w3.org/2000/svg"
   xmlns="http://www.w3.org/2000/svg"
   xmlns:sodipodi="http://sodipodi.sourceforge.net/DTD/sodipodi-0.dtd"
   xmlns:inkscape="http://www.inkscape.org/namespaces/inkscape"
   width="71.352234mm"
   height="34.367382mm"
   viewBox="0 0 71.352234 34.367382"
   version="1.1"
   id="svg8"
   sodipodi:docname="html_icon.svg"
   inkscape:version="0.92.1 r15371">
  <defs
     id="defs2" />
  <sodipodi:namedview
     id="base"
     pagecolor="#ffffff"
     bordercolor="#666666"
     borderopacity="1.0"
     inkscape:pageopacity="0.0"
     inkscape:pageshadow="2"
     inkscape:zoom="1.4"
     inkscape:cx="348.9945"
     inkscape:cy="139.44603"
     inkscape:document-units="mm"
     inkscape:current-layer="layer1"
     showgrid="false"
     inkscape:window-width="1280"
     inkscape:window-height="962"
     inkscape:window-x="-8"
     inkscape:window-y="-8"
     inkscape:window-maximized="1"
     fit-margin-top="0"
     fit-margin-left="0"
     fit-margin-right="0"
     fit-margin-bottom="0" />
  <metadata
     id="metadata5">
    <rdf:RDF>
      <cc:Work
         rdf:about="">
        <dc:format>image/svg+xml</dc:format>
        <dc:type
           rdf:resource="http://purl.org/dc/dcmitype/StillImage" />
        <dc:title></dc:title>
      </cc:Work>
    </rdf:RDF>
  </metadata>
  <g
     inkscape:label="Layer 1"
     inkscape:groupmode="layer"
     id="layer1"
     transform="translate(-360.15439,-162.02179)">
    <path
       style="fill:#040404;stroke-width:0.26458335"
       d="m 416.38312,195.5984 c -1.45521,-0.41812 -3.6281,-1.01478 -4.82865,-1.3259 -1.20054,-0.31113 -2.1829,-0.64036 -2.18301,-0.73164 -1.1e-4,-0.0913 -0.23989,-2.60673 -0.53283,-5.58991 -0.77022,-7.84337 -1.57433,-17.17218 -1.57933,-18.32239 l -0.004,-0.99219 h 12.04685 c 9.98162,0 12.07079,0.0624 12.18655,0.36406 0.0768,0.20023 -0.1004,2.73031 -0.39385,5.6224 -0.29346,2.89208 -0.79623,8.29443 -1.11727,12.00521 -0.32105,3.71078 -0.65357,6.82728 -0.73894,6.92556 -0.14703,0.16926 -9.86496,2.89689 -10.09878,2.83452 -0.0608,-0.0162 -1.30122,-0.3716 -2.75643,-0.78972 z m 6.01486,-5.28174 c 1.63953,-0.44511 3.06248,-0.89159 3.16211,-0.99219 0.0996,-0.10059 0.311,-1.9093 0.46971,-4.01935 0.15871,-2.11005 0.35402,-4.16149 0.43403,-4.55874 l 0.14546,-0.72229 -5.64225,-0.0715 -5.64226,-0.0715 -0.0793,-1.52135 -0.0793,-1.52136 h 5.79995 5.79995 l 0.17664,-1.33157 c 0.0971,-0.73237 0.10546,-1.44675 0.0185,-1.5875 -0.0959,-0.15514 -3.12168,-0.25593 -7.68317,-0.25593 h -7.52501 l 0.0216,0.99219 c 0.0119,0.5457 0.16071,2.59953 0.33073,4.56406 l 0.30911,3.57188 5.38804,0.0717 5.38804,0.0717 -0.18852,1.76032 c -0.10368,0.96818 -0.23973,1.8938 -0.30233,2.05694 -0.0626,0.16314 -0.81737,0.48512 -1.67725,0.71551 -1.41863,0.38011 -1.72249,0.38084 -3.28099,0.008 -1.81179,-0.4335 -2.00821,-0.65142 -2.01609,-2.23676 -0.004,-0.71403 -0.0338,-0.7276 -1.6216,-0.7276 h -1.61798 l 0.17051,1.52135 c 0.0938,0.83675 0.23284,1.94302 0.30901,2.45839 l 0.13849,0.93703 2.96263,0.82446 c 1.62944,0.45345 3.04993,0.83546 3.15665,0.8489 0.10671,0.0134 1.53546,-0.33973 3.175,-0.78484 z m -61.47359,2.10168 -0.77,-0.82429 0.0685,-13.52936 0.0685,-13.52936 13.5599,-0.0685 13.55989,-0.0685 v 0.64629 c 0,0.50835 0.15529,0.66415 0.72761,0.73001 l 0.7276,0.0837 0.0685,13.69218 0.0685,13.69219 h -13.65457 -13.65456 z m 8.49519,-8.17155 v -2.38125 l 1.25677,-0.003 c 1.54103,-0.003 3.74991,-0.97827 4.37413,-1.93095 2.08115,-3.17623 0.54809,-7.0951 -3.06937,-7.84608 -0.90325,-0.18751 -2.21142,-0.2368 -3.33816,-0.12578 l -1.85284,0.18258 -0.0743,7.13276 c -0.0409,3.92303 -0.0247,7.18222 0.0359,7.24267 0.0606,0.0604 0.68572,0.10989 1.38907,0.10989 l 1.27882,1e-5 z m 0,-7.40834 v -2.64583 h 0.80689 c 1.85094,0 3.14129,1.49189 2.79367,3.23001 -0.26968,1.3484 -1.11939,2.06166 -2.45606,2.06166 h -1.1445 z m 13.21894,9.398 c 1.26188,-0.65254 1.86231,-1.642 1.86231,-3.06892 0,-1.56426 -0.59456,-2.32721 -2.62331,-3.36631 -1.66338,-0.85197 -2.21668,-1.51298 -1.61003,-1.92344 0.39282,-0.26578 1.95872,-0.18253 3.10886,0.16528 0.54804,0.16573 0.59531,0.0961 0.59531,-0.87677 0,-1.31276 -0.43028,-1.69351 -2.0946,-1.85343 -2.70275,-0.2597 -4.51998,1.09091 -4.51998,3.35934 0,1.51544 0.60657,2.29226 2.56469,3.28452 1.70513,0.86405 2.12031,1.34897 1.64515,1.9215 -0.42059,0.50678 -2.16244,0.3554 -3.42541,-0.29771 -0.93515,-0.48358 -1.14184,-0.22842 -1.00151,1.2364 0.0679,0.70829 0.26976,0.97749 1.01083,1.3477 1.13833,0.56866 3.45522,0.60575 4.48769,0.0718 z m 16.67897,-3.048 v -1.05833 h -3.57187 -3.57188 v -2.24128 -2.24128 l 3.50573,-0.0738 3.50573,-0.0738 0.13229,-1.14059 0.13229,-1.1406 2.96572,2.19893 c 1.63114,1.20941 2.94083,2.28085 2.91041,2.38097 -0.0635,0.20892 -5.65628,4.44817 -5.86845,4.44817 -0.077,0 -0.13997,-0.47625 -0.13997,-1.05834 z m 10.05417,-18.90013 v -2.26653 h 0.79375 c 0.67028,0 0.79375,0.10289 0.79375,0.66146 0,0.52916 0.13229,0.66145 0.66146,0.66145 0.52917,0 0.66146,-0.13229 0.66146,-0.66145 0,-0.55857 0.12347,-0.66146 0.79375,-0.66146 h 0.79375 v 2.26653 2.26653 l -0.72761,-0.0837 c -0.57149,-0.0658 -0.74556,-0.23983 -0.81132,-0.81132 -0.065,-0.56526 -0.22347,-0.72761 -0.71003,-0.72761 -0.48657,0 -0.64499,0.16235 -0.71003,0.72761 -0.0658,0.57149 -0.23983,0.74556 -0.81133,0.81132 l -0.7276,0.0837 z m 6.61458,0.64388 c 0,-1.51694 -0.0294,-1.5875 -0.66146,-1.5875 -0.52916,0 -0.66145,-0.13229 -0.66145,-0.66145 0,-0.65044 0.0353,-0.66146 2.11666,-0.66146 2.08139,0 2.11667,0.011 2.11667,0.66146 0,0.52916 -0.13229,0.66145 -0.66146,0.66145 -0.63206,0 -0.66146,0.0706 -0.66146,1.5875 v 1.5875 h -0.79375 -0.79375 z m 3.70417,-0.66145 v -2.24896 h 0.77168 c 0.53156,0 0.93199,0.22006 1.28685,0.7072 l 0.51516,0.7072 0.46337,-0.7072 c 0.32503,-0.49605 0.69129,-0.7072 1.2267,-0.7072 h 0.76332 v 2.24896 c 0,2.2225 -0.008,2.24895 -0.66145,2.24895 -0.59532,0 -0.66146,-0.10583 -0.66146,-1.05833 0,-1.22557 -0.30514,-1.36361 -0.76811,-0.34749 l -0.32388,0.71084 -0.63512,-0.77699 -0.63511,-0.77698 -0.01,1.12447 c -0.009,1.02052 -0.0707,1.12448 -0.67096,1.12448 -0.65368,0 -0.66146,-0.0265 -0.66146,-2.24895 z m 6.08542,0 c 0,-2.2225 0.008,-2.24896 0.66145,-2.24896 0.62538,0 0.66146,0.0794 0.66146,1.45521 v 1.4552 h 1.05834 c 0.99953,0 1.05833,0.0441 1.05833,0.79375 v 0.79375 h -1.71979 -1.71979 z"
       id="path52"
       inkscape:connector-curvature="0" />
  </g>
</svg>
