<?xml version="1.0" encoding="utf-8"?>
<!-- Generator: Adobe Illustrator 20.0.0, SVG Export Plug-In . SVG Version: 6.00 Build 0)  -->
<svg version="1.1" id="Слой_1" xmlns="http://www.w3.org/2000/svg" xmlns:xlink="http://www.w3.org/1999/xlink" x="0px" y="0px"
	 viewBox="0 0 270 141" style="enable-background:new 0 0 270 141;" xml:space="preserve">
<style type="text/css">
	.st0{fill:#FFFFFF;}
</style>
<g>
	<g>
		<path class="st0" d="M1,22C1,15,1,8,1,1c90,0,180,0,270,0c0,12,0,24,0,36c-30.6,0-61.2,0-92.5,0c2.8,32,5.6,63.2,8.4,94.4
			c2.1,0.6,3.7,1.1,5.2,1.5c10.3,3,20.6,6,30.9,9.1c-74,0-148,0-222,0c0-6,0-12,0-18c1.7,2.3,3.4,4.5,5.1,6.8
			c0.4-0.4,0.8-0.8,1.1-1.3c34,0,68.1,0,102.4,0c0-34.4,0-68.4,0-102.6c-1.8-0.3-3.4-0.6-5.1-0.8c-0.3-1.6-0.7-3.1-1-4.6
			c-0.9-0.1-1.3-0.2-1.8-0.2c-32.3,0-64.6,0-96.9,0C3.5,21.2,2.3,21.7,1,22z M122.3,70.5c0,6.3,0,11.6,0,17.7c9,0,17.7,0,26.3,0
			c0.2,3,0.4,5.4,0.6,8.4c8-6.1,15.4-11.6,23.2-17.5c-8-6-15.4-11.5-23.7-17.7c0,3.7,0,6.2,0,9.1C139.9,70.5,131.3,70.5,122.3,70.5z
			 M240.2,28.8c1.9-0.2,3.3-0.3,4.7-0.4c0-5.8,0-11.2,0-16.7c-2,0-3.6,0-5.3,0c-1.3,1.8-2.6,3.5-4,5.4c-1.5-2-2.8-3.7-4-5.4
			c-1.8,0-3.5,0-5.2,0c0,5.7,0,11.3,0,17.1c1.8-0.2,3.2-0.3,4.7-0.5c0.1-2.5,0.2-4.6,0.4-7.6c1.8,2.1,3,3.5,4.2,4.9
			c1.3-1.6,2.3-3,4-5.2C239.8,23.7,240,26,240.2,28.8z M198.8,28.5c1.9,0,3.3,0,5,0c0-5.6,0-11.1,0-16.6c-1.7,0-3.3,0-4.8,0
			c-0.4,1.9-0.7,3.5-1,5c-1.8,0-3.2,0-4.8,0c-0.3-1.7-0.6-3.3-0.9-5c-1.7,0-3.3,0-4.8,0c0,5.8,0,11.2,0,16.8
			c1.8-0.1,3.2-0.2,4.8-0.2c0.3-1.9,0.5-3.5,0.7-5.2c1.8,0,3.5,0,5.3,0C198.4,25.1,198.5,26.6,198.8,28.5z M212.1,28.9
			c2.2-0.2,3.8-0.3,5.8-0.5c0-4,0-7.5,0-11.1c1.9-0.3,3.3-0.5,4.8-0.8c0-1.7,0-3.1,0-4.7c-5.3,0-10.3,0-15.5,0c0,1.7,0,3.1,0,4.6
			c1.7,0.4,3.2,0.8,5,1.2C212.1,21.4,212.1,24.8,212.1,28.9z M254.2,11.5c-2.3,0.2-3.8,0.4-5.4,0.5c0,3.3,0,5.9,0,8.6
			c0,2.6,0,5.2,0,7.8c4.9,0,9.1,0,13.6,0c-0.1-1.9-0.1-3.3-0.2-4.9c-2.7-0.2-5.1-0.4-7.9-0.7C254.2,19.1,254.2,15.7,254.2,11.5z"/>
		<path d="M1,22c1.3-0.3,2.5-0.8,3.8-0.8c32.3,0,64.6,0,96.9,0c0.5,0,1,0.1,1.8,0.2c0.3,1.4,0.6,3,1,4.6c1.7,0.3,3.3,0.5,5.1,0.8
			c0,34.2,0,68.3,0,102.6c-34.3,0-68.3,0-102.4,0c-0.4,0.4-0.8,0.8-1.1,1.3c-1.7-2.3-3.4-4.5-5.1-6.8C1,90,1,56,1,22z M36,87.1
			c2.8,0,4.7,0.1,6.7,0c9.6-0.5,17.2-7.5,18.1-16.8c1-9.7-3.9-18-13-19.6c-7.2-1.3-14.6-0.9-21.9-1.2c0,19.2,0,37,0,54.9
			c3.5,0,6.6,0,10.1,0C36,98.6,36,93.2,36,87.1z M91,65.2c-4.4-3.1-9.3-4.1-14.4-3c-7.4,1.6-11,6.4-10.7,13.9
			c0.2,5.8,4.3,8.3,8.5,10.7c3,1.7,6,3.5,9.8,5.7c-7.2,6.2-12.8,0.9-18.5-0.1c0,3.3,0,6.2,0,9c5.7,4.1,11.8,4.6,17.9,3
			c5.1-1.3,8.8-4.5,9.6-10.3c0.8-5.8-1.4-10.1-6.4-13c-2.2-1.2-4.5-2.1-6.7-3.4c-1.7-1-3.2-2.4-4.9-3.7c3.4-3.2,3.4-3.2,15.6-1.2
			C91,70.3,91,67.7,91,65.2z"/>
		<path d="M223,142c-10.3-3-20.6-6-30.9-9.1c-1.6-0.5-3.2-0.9-5.2-1.5c-2.8-31.2-5.5-62.4-8.4-94.4c31.4,0,62,0,92.5,0
			c0,2.7,0,5.3,0,8c-0.3,0.7-0.8,1.4-0.9,2.2c-1.6,18-3.2,36.1-4.8,54.1c-0.9,10.1-1.8,20.1-2.7,29.9c-12.5,3.7-24.5,7.2-36.6,10.7
			C225,142,224,142,223,142z M198.5,91.3c13.6,0,26.7,0,40.5,0c-0.6,5.4-1.2,10.2-1.7,14.8c-12.4,4.3-14.7,4.3-25.4,0
			c-0.4-2.7-0.8-5.6-1.2-8.5c-4,0-7.7,0-11.9,0c0.8,6.4,1.4,12.2,2,17.1c16.5,8.5,32.1,7.9,47.9,0c0.9-11.2,1.8-22.7,2.8-34.9
			c-14.5,0-28.2,0-42.4,0c0-4.2,0-7.7,0-11.7c14.6,0,28.9,0,43.5,0c0.4-4,0.7-7.6,1-11.5c-19.7,0-38.8,0-58.2,0
			C196.5,68,197.5,79.2,198.5,91.3z"/>
		<path class="st0" d="M226,142c12.1-3.5,24.1-7.1,36.6-10.7c0.9-9.8,1.8-19.9,2.7-29.9c1.6-18,3.2-36.1,4.8-54.1
			c0.1-0.7,0.6-1.5,0.9-2.2c0,32.3,0,64.7,0,97C256,142,241,142,226,142z"/>
		<path d="M122.3,70.5c9,0,17.6,0,26.4,0c0-2.9,0-5.4,0-9.1c8.2,6.1,15.7,11.7,23.7,17.7c-7.8,5.9-15.2,11.4-23.2,17.5
			c-0.2-3.1-0.4-5.4-0.6-8.4c-8.6,0-17.3,0-26.3,0C122.3,82.1,122.3,76.7,122.3,70.5z"/>
		<path d="M240.2,28.8c-0.2-2.9-0.3-5.1-0.5-8.3c-1.7,2.2-2.7,3.5-4,5.2c-1.3-1.5-2.4-2.8-4.2-4.9c-0.2,3-0.3,5.1-0.4,7.6
			c-1.5,0.2-2.9,0.3-4.7,0.5c0-5.9,0-11.4,0-17.1c1.8,0,3.4,0,5.2,0c1.2,1.7,2.5,3.4,4,5.4c1.4-1.9,2.6-3.6,4-5.4c1.6,0,3.3,0,5.3,0
			c0,5.5,0,10.9,0,16.7C243.5,28.6,242.1,28.7,240.2,28.8z"/>
		<path d="M198.8,28.5c-0.2-1.9-0.4-3.4-0.5-5.2c-1.8,0-3.5,0-5.3,0c-0.2,1.7-0.4,3.3-0.7,5.2c-1.6,0.1-3.1,0.2-4.8,0.2
			c0-5.7,0-11.1,0-16.8c1.5,0,3,0,4.8,0c0.3,1.6,0.6,3.2,0.9,5c1.6,0,3,0,4.8,0c0.3-1.5,0.6-3,1-5c1.5,0,3,0,4.8,0
			c0,5.5,0,10.9,0,16.6C202,28.5,200.6,28.5,198.8,28.5z"/>
		<path d="M212.1,28.9c0-4.1,0-7.5,0-11.2c-1.7-0.4-3.2-0.8-5-1.2c0-1.5,0-2.9,0-4.6c5.2,0,10.3,0,15.5,0c0,1.6,0,3,0,4.7
			c-1.5,0.2-2.9,0.5-4.8,0.8c0,3.6,0,7.1,0,11.1C215.9,28.6,214.4,28.7,212.1,28.9z"/>
		<path d="M254.2,11.5c0,4.2,0,7.6,0,11.3c2.8,0.2,5.2,0.4,7.9,0.7c0.1,1.6,0.1,3,0.2,4.9c-4.5,0-8.7,0-13.6,0c0-2.6,0-5.2,0-7.8
			c0-2.6,0-5.3,0-8.6C250.4,11.8,251.9,11.7,254.2,11.5z"/>
		<path class="st0" d="M36,87.1c0,6.1,0,11.5,0,17.3c-3.5,0-6.6,0-10.1,0c0-17.9,0-35.7,0-54.9c7.3,0.3,14.8-0.1,21.9,1.2
			c9.1,1.7,14,10,13,19.6c-1,9.2-8.5,16.3-18.1,16.8C40.7,87.2,38.7,87.1,36,87.1z M36.3,58.6c0,6.7,0,13,0,19.4
			c4.6,0.3,9.1,1,11.8-3.5c2.3-3.8,2.7-8,0.3-11.8C45.6,58.2,41.3,57.7,36.3,58.6z"/>
		<path class="st0" d="M91,65.2c0,2.4,0,5,0,7.7c-12.3-2-12.3-2-15.6,1.2c1.7,1.3,3.2,2.7,4.9,3.7c2.1,1.3,4.5,2.2,6.7,3.4
			c5,2.9,7.1,7.2,6.4,13c-0.8,5.7-4.5,8.9-9.6,10.3c-6.1,1.6-12.2,1.1-17.9-3c0-2.8,0-5.7,0-9c5.7,1.1,11.3,6.3,18.5,0.1
			c-3.8-2.2-6.8-3.9-9.8-5.7c-4.2-2.5-8.3-5-8.5-10.7c-0.2-7.5,3.4-12.3,10.7-13.9C81.7,61.2,86.6,62.1,91,65.2z"/>
		<path class="st0" d="M198.5,91.3c-1-12-2-23.2-3-34.8c19.5,0,38.5,0,58.2,0c-0.4,3.9-0.7,7.5-1,11.5c-14.6,0-28.9,0-43.5,0
			c0,4,0,7.6,0,11.7c14.1,0,27.8,0,42.4,0c-1,12.2-1.9,23.7-2.8,34.9c-15.8,7.9-31.4,8.5-47.9,0c-0.6-4.9-1.3-10.7-2-17.1
			c4.2,0,7.9,0,11.9,0c0.4,2.9,0.8,5.8,1.2,8.5c10.7,4.4,12.9,4.4,25.4,0c0.5-4.5,1.1-9.4,1.7-14.8
			C225.3,91.3,212.2,91.3,198.5,91.3z"/>
		<path d="M36.3,58.6c5-0.9,9.4-0.4,12.1,4c2.4,3.9,2,8-0.3,11.8c-2.7,4.6-7.2,3.9-11.8,3.5C36.3,71.6,36.3,65.3,36.3,58.6z"/>
	</g>
</g>
</svg>
