<?xml version="1.0" encoding="utf-8"?>
<!-- Generator: Adobe Illustrator 20.0.0, SVG Export Plug-In . SVG Version: 6.00 Build 0)  -->
<svg version="1.1"
	 id="svg8" inkscape:version="0.92.1 r15371" sodipodi:docname="website_icon.svg" xmlns:cc="http://creativecommons.org/ns#" xmlns:dc="http://purl.org/dc/elements/1.1/" xmlns:inkscape="http://www.inkscape.org/namespaces/inkscape" xmlns:rdf="http://www.w3.org/1999/02/22-rdf-syntax-ns#" xmlns:sodipodi="http://sodipodi.sourceforge.net/DTD/sodipodi-0.dtd" xmlns:svg="http://www.w3.org/2000/svg"
	 xmlns="http://www.w3.org/2000/svg" xmlns:xlink="http://www.w3.org/1999/xlink" x="0px" y="0px" viewBox="0 0 177 155.3"
	 style="enable-background:new 0 0 177 155.3;" xml:space="preserve">
<style type="text/css">
	.st0{fill:#FFFFFF;}
</style>
<sodipodi:namedview  bordercolor="#666666" borderopacity="1.0" fit-margin-bottom="0" fit-margin-left="0" fit-margin-right="0" fit-margin-top="0" id="base" inkscape:current-layer="layer1" inkscape:cx="-512.17054" inkscape:cy="474.1572" inkscape:document-units="mm" inkscape:pageopacity="0.0" inkscape:pageshadow="2" inkscape:window-height="962" inkscape:window-maximized="1" inkscape:window-width="1280" inkscape:window-x="-8" inkscape:window-y="-8" inkscape:zoom="1.979899" pagecolor="#ffffff" showgrid="false">
	</sodipodi:namedview>
<g id="layer1" transform="translate(-176.66608,-212.16324)" inkscape:groupmode="layer" inkscape:label="Layer 1">
	<g>
		<g>
			<path d="M177.4,364.4c0-50.4,0-100.9,0-151.5c57.7,0,115.5,0,173.2,0c2.8,1.7,3.8,4.2,3.8,7.5c-0.1,46.7-0.1,93.4-0.1,140.1
				c0,5.9-1.7,7.6-7.6,7.6c-54,0-107.9,0-161.9,0.1C181.6,368.2,179.1,367.2,177.4,364.4z M343.3,257.5c-52,0-103.2,0-154.7,0
				c0,1.4,0,2.5,0,3.7c0,29.4,0,58.7,0,88.1c0,6.2,1.5,7.7,7.7,7.7c46.4,0,92.7,0,139.1,0c6.4,0,7.9-1.5,7.9-7.9
				c0-29.1,0-58.2,0-87.4C343.3,260.4,343.3,259,343.3,257.5z M188.6,245.9c51.8,0,103.1,0,154.7,0c0-4.6,0-8.9,0-13.2
				c0-7.3-1.2-8.6-8.4-8.6c-46,0-91.9,0-137.9,0c-1.1,0-2.3-0.1-3.4,0.1c-3,0.3-4.9,2-5,5.1C188.5,234.6,188.6,240.1,188.6,245.9z"
				/>
			<path class="st0" d="M177.4,364.4c1.7,2.8,4.2,3.8,7.5,3.8c54-0.1,107.9-0.1,161.9-0.1c5.9,0,7.6-1.7,7.6-7.6
				c0-46.7,0-93.4,0.1-140.1c0-3.3-1-5.8-3.8-7.5c1.5,0,3,0,4.5,0c0,51.9,0,103.9,0,155.9c-59.2,0-118.5,0-177.7,0
				C177.4,367.4,177.4,365.9,177.4,364.4z"/>
			<path class="st0" d="M343.3,257.5c0,1.5,0,2.8,0,4.2c0,29.1,0,58.2,0,87.4c0,6.5-1.5,7.9-7.9,7.9c-46.4,0-92.7,0-139.1,0
				c-6.2,0-7.7-1.5-7.7-7.7c0-29.4,0-58.7,0-88.1c0-1.1,0-2.2,0-3.7C240,257.5,291.3,257.5,343.3,257.5z M271.4,314.1
				c15,2.7,24.9-1.3,30.3-11.8c4.8-9.3,3-20.7-4.3-28.1c-7.4-7.6-18.9-9.3-28.3-4.4c-10.4,5.5-14.3,15.2-11.7,30.2
				c-9.8,9.7-19.8,19.5-29.4,28.9c0,5.3,0,9.8,0,14.6c4.7,0,9.1,0,13.9,0c0-2.8,0-5.3,0-8.2c3,0,5.5,0,8.6,0c0-3,0-5.7,0-8.5
				c3.1,0,5.7,0,8.9,0C263.4,322.6,267.5,318.2,271.4,314.1z"/>
			<path class="st0" d="M188.6,245.9c0-5.8-0.1-11.2,0-16.7c0.1-3,2-4.7,5-5.1c1.1-0.1,2.2-0.1,3.4-0.1c46,0,91.9,0,137.9,0
				c7.2,0,8.4,1.3,8.4,8.6c0,4.3,0,8.7,0,13.2C291.6,245.9,240.4,245.9,188.6,245.9z M222,229.7c0,3.8,0,7.3,0,10.7
				c3.7,0,7.1,0,10.5,0c0-3.7,0-7.1,0-10.7C228.9,229.7,225.6,229.7,222,229.7z M199.8,240.3c3.8,0,7.2,0,10.5,0c0-3.7,0-7.1,0-10.7
				c-3.6,0-6.9,0-10.5,0C199.8,233.3,199.8,236.7,199.8,240.3z M244.1,229.6c0,3.8,0,7.3,0,10.8c3.7,0,7,0,10.3,0
				c0-3.7,0-7.2,0-10.8C250.9,229.6,247.7,229.6,244.1,229.6z"/>
			<path d="M271.4,314.1c-3.9,4.1-8,8.5-11.8,12.7c-3.2,0-5.8,0-8.9,0c0,2.8,0,5.5,0,8.5c-3.1,0-5.6,0-8.6,0c0,2.9,0,5.5,0,8.2
				c-4.8,0-9.3,0-13.9,0c0-4.7,0-9.3,0-14.6c9.6-9.4,19.6-19.2,29.4-28.9c-2.6-15,1.2-24.7,11.7-30.2c9.4-5,20.9-3.2,28.3,4.4
				c7.3,7.4,9,18.8,4.3,28.1C296.3,312.8,286.4,316.8,271.4,314.1z M287.5,292.5c4.8-0.1,8.5-3.9,8.4-8.7c-0.1-4.7-3.8-8.2-8.4-8.3
				c-4.8,0-8.6,3.7-8.6,8.5C278.9,288.9,282.7,292.6,287.5,292.5z"/>
			<path d="M222,229.7c3.6,0,7,0,10.5,0c0,3.6,0,7,0,10.7c-3.4,0-6.8,0-10.5,0C222,237,222,233.5,222,229.7z"/>
			<path d="M199.8,240.3c0-3.6,0-7.1,0-10.7c3.5,0,6.9,0,10.5,0c0,3.5,0,6.9,0,10.7C206.9,240.3,203.5,240.3,199.8,240.3z"/>
			<path d="M244.1,229.6c3.6,0,6.8,0,10.3,0c0,3.6,0,7.1,0,10.8c-3.4,0-6.7,0-10.3,0C244.1,236.9,244.1,233.5,244.1,229.6z"/>
			<path class="st0" d="M287.5,292.5c-4.8,0.1-8.6-3.6-8.7-8.4c0-4.8,3.8-8.5,8.6-8.5c4.7,0,8.3,3.6,8.4,8.3
				C296,288.7,292.4,292.5,287.5,292.5z"/>
		</g>
	</g>
</g>
</svg>
